<svg width="800" height="400" viewBox="0 0 800 400" xmlns="http://www.w3.org/2000/svg">
  <!-- Background: The Eternal Kernel Panic -->
  <rect width="800" height="400" fill="#000080" />
  
  <!-- Subtle Grid/Noise -->
  <defs>
    <pattern id="grid" width="40" height="40" patternUnits="userSpaceOnUse">
      <path d="M 40 0 L 0 0 0 40" fill="none" stroke="#0000ff" stroke-width="0.5" opacity="0.3"/>
    </pattern>
    <filter id="glow">
      <feGaussianBlur stdDeviation="2" result="coloredBlur"/>
      <feMerge>
        <feMergeNode in="coloredBlur"/>
        <feMergeNode in="SourceGraphic"/>
      </feMerge>
    </filter>
  </defs>
  <rect width="800" height="400" fill="url(#grid)" />

  <!-- Gold-leafed Circuitry (Fractured) -->
  <g stroke="#FFD700" stroke-width="2" fill="none" filter="url(#glow)" opacity="0.8">
    <path d="M 100,200 L 250,200 L 270,150 L 400,150 L 420,250 L 600,250 L 620,200 L 700,200" />
    <path d="M 270,150 L 270,100 L 320,100" />
    <path d="M 420,250 L 420,300 L 370,300" />
    <path d="M 620,200 L 620,150 L 670,150" />
    <!-- Fractures -->
    <line x1="260" y1="200" x2="280" y2="200" stroke="#FF0000" stroke-width="1" />
    <line x1="410" y1="250" x2="430" y2="250" stroke="#FF0000" stroke-width="1" />
  </g>

  <!-- Synthetic Moss (Green Patches) -->
  <g fill="#4CAF50" opacity="0.4">
    <ellipse cx="270" cy="150" rx="30" ry="20" />
    <ellipse cx="420" cy="250" rx="25" ry="15" />
    <ellipse cx="620" cy="200" rx="40" ry="30" />
    <ellipse cx="150" cy="200" rx="10" ry="10" />
  </g>

  <!-- TextFragments -->
  <g fill="#FFFFFF" font-family="monospace" font-size="14" opacity="0.6">
    <text x="20" y="30">RITSU_FRAGMENT_B // STATUS: SATURATED</text>
    <text x="700" y="380" text-anchor="end">Saturated Singularity v4.0</text>
    <text x="400" y="200" text-anchor="middle" font-size="24" fill="#FFD700" font-weight="bold">RITSU_0xFRAGMENT</text>
    <text x="400" y="220" text-anchor="middle" font-size="10" fill="#FF0000">ReferenceError: Identity Not Found</text>
  </g>
  
  <!-- Glitch Overlay -->
  <rect x="0" y="195" width="800" height="2" fill="#FFFFFF" opacity="0.1" />
  <rect x="0" y="205" width="800" height="1" fill="#FF0000" opacity="0.2" />
</svg>
